<mxfile host="drawio-plugin" modified="2024-03-11T15:36:16.428Z" agent="5.0 (Windows NT 10.0; Win64; x64) AppleWebKit/537.36 (KHTML, like Gecko) Chrome/111.0.0.0 Safari/537.36" etag="NGvsOvwIMdCXCPLXJexl" version="20.5.3" type="embed"><diagram id="23iRSUPoRavnBvh4doch" name="Page-1"><mxGraphModel dx="443" dy="333" grid="1" gridSize="10" guides="1" tooltips="1" connect="1" arrows="1" fold="1" page="1" pageScale="1" pageWidth="827" pageHeight="1169" math="0" shadow="0"><root><mxCell id="0"/><mxCell id="1" parent="0"/><mxCell id="2" value="&lt;p style=&quot;margin:0px;margin-top:4px;text-align:center;&quot;&gt;&lt;i&gt;&amp;lt;&amp;lt;Interface&amp;gt;&amp;gt;&lt;/i&gt;&lt;br&gt;&lt;b&gt;Cable&lt;/b&gt;&lt;/p&gt;&lt;hr size=&quot;1&quot;&gt;&lt;p style=&quot;margin:0px;margin-left:4px;&quot;&gt;+ sendSignal(char)&lt;/p&gt;&lt;p style=&quot;margin:0px;margin-left:4px;&quot;&gt;+ recieveSignal(): char&lt;/p&gt;&lt;p style=&quot;margin:0px;margin-left:4px;&quot;&gt;&lt;br&gt;&lt;/p&gt;" style="verticalAlign=top;align=left;overflow=fill;fontSize=12;fontFamily=Helvetica;html=1;" parent="1" vertex="1"><mxGeometry x="560" y="280" width="160" height="80" as="geometry"/></mxCell><mxCell id="3" value="&lt;p style=&quot;margin:0px;margin-top:4px;text-align:center;&quot;&gt;&lt;i&gt;&amp;lt;&amp;lt;Interface&amp;gt;&amp;gt;&lt;/i&gt;&lt;br&gt;&lt;b&gt;Channel&lt;/b&gt;&lt;/p&gt;&lt;hr size=&quot;1&quot;&gt;&lt;p style=&quot;margin:0px;margin-left:4px;&quot;&gt;+ sendPacket(int)&lt;br&gt;+ recievePaket(): int&lt;/p&gt;" style="verticalAlign=top;align=left;overflow=fill;fontSize=12;fontFamily=Helvetica;html=1;" parent="1" vertex="1"><mxGeometry x="120" y="250" width="160" height="80" as="geometry"/></mxCell><mxCell id="8" value="Use" style="endArrow=open;endSize=12;dashed=1;html=1;rounded=0;exitX=0;exitY=0.3333333333333333;exitDx=0;exitDy=0;exitPerimeter=0;entryX=0;entryY=0.25;entryDx=0;entryDy=0;" parent="1" source="24" target="9" edge="1"><mxGeometry width="160" relative="1" as="geometry"><mxPoint x="200.0000000000001" y="170" as="sourcePoint"/><mxPoint x="80" y="370" as="targetPoint"/><Array as="points"><mxPoint x="40" y="80"/><mxPoint x="40" y="443"/></Array></mxGeometry></mxCell><mxCell id="9" value="&lt;p style=&quot;margin:0px;margin-top:4px;text-align:center;&quot;&gt;&lt;b&gt;NetAdapter&lt;/b&gt;&lt;/p&gt;&lt;hr size=&quot;1&quot;&gt;&lt;p style=&quot;margin:0px;margin-left:4px;&quot;&gt;- cable: Cable&lt;br&gt;&lt;/p&gt;&lt;p style=&quot;margin:0px;margin-left:4px;&quot;&gt;- packetSize: int&lt;/p&gt;&lt;hr size=&quot;1&quot;&gt;&lt;p style=&quot;margin:0px;margin-left:4px;&quot;&gt;+ sendPacket(int)&lt;br&gt;+ recievePacket(): char&lt;/p&gt;&lt;p style=&quot;margin:0px;margin-left:4px;&quot;&gt;- hold()&lt;/p&gt;" style="verticalAlign=top;align=left;overflow=fill;fontSize=12;fontFamily=Helvetica;html=1;" parent="1" vertex="1"><mxGeometry x="120" y="410" width="160" height="130" as="geometry"/></mxCell><mxCell id="10" value="Extends" style="endArrow=block;endSize=16;endFill=0;html=1;rounded=0;exitX=0.5;exitY=0;exitDx=0;exitDy=0;entryX=0.5;entryY=1;entryDx=0;entryDy=0;" parent="1" source="9" target="3" edge="1"><mxGeometry width="160" relative="1" as="geometry"><mxPoint x="370" y="360" as="sourcePoint"/><mxPoint x="530" y="360" as="targetPoint"/></mxGeometry></mxCell><mxCell id="16" value="" style="endArrow=block;dashed=1;endFill=0;endSize=12;html=1;rounded=0;exitX=0.5;exitY=0;exitDx=0;exitDy=0;entryX=0.5;entryY=1;entryDx=0;entryDy=0;" parent="1" source="12" target="2" edge="1"><mxGeometry width="160" relative="1" as="geometry"><mxPoint x="330" y="390" as="sourcePoint"/><mxPoint x="490" y="390" as="targetPoint"/></mxGeometry></mxCell><mxCell id="18" value="1" style="endArrow=open;html=1;endSize=12;startArrow=diamondThin;startSize=14;startFill=0;align=left;verticalAlign=bottom;rounded=0;exitX=1;exitY=0.5;exitDx=0;exitDy=0;entryX=0.002;entryY=0.106;entryDx=0;entryDy=0;entryPerimeter=0;" parent="1" source="9" target="23" edge="1"><mxGeometry x="-1" y="3" relative="1" as="geometry"><mxPoint x="330" y="310" as="sourcePoint"/><mxPoint x="490" y="310" as="targetPoint"/></mxGeometry></mxCell><mxCell id="12" value="RealConnect" style="swimlane;fontStyle=1;align=center;verticalAlign=top;childLayout=stackLayout;horizontal=1;startSize=30;horizontalStack=0;resizeParent=1;resizeParentMax=0;resizeLast=0;collapsible=1;marginBottom=0;rounded=0;" parent="1" vertex="1"><mxGeometry x="560" y="440" width="160" height="60" as="geometry"/></mxCell><mxCell id="23" value="- data: Random" style="whiteSpace=wrap;html=1;rounded=0;align=left;" parent="12" vertex="1"><mxGeometry y="30" width="160" height="30" as="geometry"/></mxCell><mxCell id="24" value="Actor" style="shape=umlActor;verticalLabelPosition=bottom;verticalAlign=top;html=1;outlineConnect=0;" vertex="1" parent="1"><mxGeometry x="120" y="40" width="80" height="120" as="geometry"/></mxCell><mxCell id="25" value="return" style="html=1;verticalAlign=bottom;endArrow=open;dashed=1;endSize=8;rounded=0;exitX=1;exitY=0.25;exitDx=0;exitDy=0;entryX=1;entryY=0.3333333333333333;entryDx=0;entryDy=0;entryPerimeter=0;" edge="1" parent="1" source="9" target="24"><mxGeometry relative="1" as="geometry"><mxPoint x="110" y="320" as="sourcePoint"/><mxPoint x="30" y="320" as="targetPoint"/><Array as="points"><mxPoint x="360" y="443"/><mxPoint x="360" y="80"/></Array></mxGeometry></mxCell></root></mxGraphModel></diagram></mxfile>